<svg width="19" height="18" viewBox="0 0 19 18" fill="none" xmlns="http://www.w3.org/2000/svg">
<path d="M9.35 0.03125C4.53359 0.03125 0.63125 3.96875 0.63125 8.75C0.63125 13.5664 4.53359 17.4688 9.35 17.4688C14.1313 17.4688 18.0688 13.5664 18.0688 8.75C18.0688 3.96875 14.1313 0.03125 9.35 0.03125ZM9.35 1.71875C13.2172 1.71875 16.3813 4.88281 16.3813 8.75C16.3813 12.6523 13.2172 15.7812 9.35 15.7812C5.44766 15.7812 2.31875 12.6523 2.31875 8.75C2.31875 4.88281 5.44766 1.71875 9.35 1.71875ZM14.2719 6.32422L13.4633 5.51562C13.3227 5.33984 13.0414 5.33984 12.8656 5.51562L7.90859 10.4375L5.79922 8.32812C5.62344 8.15234 5.37734 8.15234 5.20156 8.32812L4.39297 9.10156C4.25234 9.27734 4.25234 9.55859 4.39297 9.69922L7.59219 12.9336C7.76797 13.1094 8.01406 13.1094 8.18984 12.9336L14.2719 6.92188C14.4125 6.74609 14.4125 6.46484 14.2719 6.32422Z" fill="white"/>
</svg>
